<svg width="60" height="60" viewBox="0 0 60 60" fill="none" xmlns="http://www.w3.org/2000/svg">
<g clip-path="url(#clip0_552_2315)">
<path d="M60.0017 30.1836C60.0017 13.5111 46.5691 -0.00390625 30.0016 -0.00390625C13.4266 -0.000156249 -0.00585938 13.5111 -0.00585938 30.1873C-0.00585938 45.2511 10.9666 57.7386 25.3066 60.0036V38.9099H17.6941V30.1873H25.3141V23.5311C25.3141 15.9673 29.7954 11.7898 36.6466 11.7898C39.9316 11.7898 43.3629 12.3786 43.3629 12.3786V19.8036H39.5791C35.8554 19.8036 34.6929 22.1323 34.6929 24.5211V30.1836H43.0104L41.6829 38.9061H34.6891V59.9998C49.0291 57.7348 60.0017 45.2474 60.0017 30.1836Z" fill="white"/>
</g>
<defs>
<clipPath id="clip0_552_2315">
<rect width="60" height="60" fill="white"/>
</clipPath>
</defs>
</svg>
