<svg width="60" height="60" viewBox="0 0 60 60" fill="none" xmlns="http://www.w3.org/2000/svg">
<g clip-path="url(#clip0_550_2274)">
<circle cx="30" cy="30" r="30" fill="white"/>
<path d="M48.5914 26.7685C48.6757 24.4663 48.1411 22.1814 47.0371 20.1258C46.2879 19.2823 45.2483 18.7132 44.0993 18.5174C39.3467 18.1113 34.5745 17.9449 29.8032 18.0188C25.0492 17.9415 20.2942 18.1026 15.5584 18.5013C14.6221 18.6617 13.7556 19.0753 13.0647 19.6915C11.5275 21.0265 11.3567 23.3104 11.1859 25.2405C10.938 28.7107 10.938 32.1927 11.1859 35.663C11.2353 36.7493 11.407 37.8275 11.6983 38.8798C11.9042 39.692 12.3209 40.4436 12.911 41.0672C13.6066 41.716 14.4932 42.1532 15.4559 42.3217C19.1382 42.7497 22.8485 42.9271 26.558 42.8525C32.536 42.9329 37.7796 42.8525 43.9797 42.4021C44.9661 42.2439 45.8777 41.8062 46.593 41.1476C47.0712 40.6971 47.4284 40.1457 47.6349 39.5392C48.2457 37.7741 48.5458 35.9269 48.523 34.0706C48.5914 33.1699 48.5914 27.7336 48.5914 26.7685ZM25.9431 35.0357V25.0797L36.0545 30.0818C33.2192 31.5615 29.4787 33.2343 25.9431 35.0357Z" fill="#021D2B"/>
</g>
<defs>
<clipPath id="clip0_550_2274">
<rect width="60" height="60" fill="white"/>
</clipPath>
</defs>
</svg>
