<svg width="60" height="60" viewBox="0 0 60 60" fill="none" xmlns="http://www.w3.org/2000/svg">
<g clip-path="url(#clip0_552_2317)">
<g clip-path="url(#clip1_552_2317)">
<path d="M29.9996 22.7084C28.5576 22.7084 27.1479 23.1361 25.9489 23.9371C24.7499 24.7386 23.8154 25.8771 23.2634 27.2094C22.7116 28.5416 22.5671 30.0079 22.8486 31.4221C23.1299 32.8364 23.8244 34.1356 24.8441 35.1551C25.8636 36.1751 27.1629 36.8696 28.5774 37.1506C29.9914 37.4319 31.4576 37.2876 32.7899 36.7359C34.1221 36.1839 35.2609 35.2494 36.0619 34.0504C36.8634 32.8514 37.2909 31.4416 37.2909 29.9996C37.2909 29.0421 37.1024 28.0939 36.7359 27.2094C36.3694 26.3249 35.8324 25.5211 35.1551 24.8441C34.4781 24.1669 33.6744 23.6299 32.7899 23.2634C31.9054 22.8971 30.9571 22.7084 29.9996 22.7084ZM59.1939 15.5054C59.1784 13.2351 58.7601 10.9854 57.9591 8.86111C57.3689 7.30661 56.4559 5.89486 55.2801 4.71911C54.1044 3.54336 52.6926 2.63036 51.1381 2.04011C49.0139 1.23886 46.7641 0.820859 44.4939 0.805359C40.7011 0.599609 39.5841 0.599609 29.9996 0.599609C20.4151 0.599609 19.2981 0.599609 15.5054 0.805359C13.2351 0.820859 10.9854 1.23886 8.86111 2.04011C7.30661 2.63036 5.89486 3.54336 4.71911 4.71911C3.54336 5.89486 2.63036 7.30661 2.04011 8.86111C1.23886 10.9854 0.820859 13.2351 0.805359 15.5054C0.599609 19.2981 0.599609 20.4151 0.599609 29.9996C0.599609 39.5841 0.599609 40.7011 0.805359 44.4939C0.837109 46.7724 1.25461 49.0289 2.04011 51.1676C2.62761 52.7149 3.54011 54.1186 4.71561 55.2836C5.88636 56.4664 7.30111 57.3796 8.86111 57.9591C10.9854 58.7601 13.2351 59.1784 15.5054 59.1939C19.2981 59.3996 20.4151 59.3996 29.9996 59.3996C39.5841 59.3996 40.7011 59.3996 44.4939 59.1939C46.7641 59.1784 49.0139 58.7601 51.1381 57.9591C52.6981 57.3796 54.1129 56.4664 55.2836 55.2836C56.4594 54.1186 57.3716 52.7149 57.9591 51.1676C58.7596 49.0329 59.1774 46.7739 59.1939 44.4939C59.3996 40.7011 59.3996 39.5841 59.3996 29.9996C59.3996 20.4151 59.3996 19.2981 59.1939 15.5054ZM51.7261 39.0254C51.6319 40.8396 51.2446 42.6269 50.5796 44.3174C50.0089 45.7279 49.1604 47.0086 48.0849 48.0849C47.0086 49.1606 45.7279 50.0089 44.3174 50.5796C42.6109 51.2076 40.8139 51.5551 38.9961 51.6086H21.0031C19.1856 51.5551 17.3884 51.2076 15.6819 50.5796C14.2239 50.0379 12.9074 49.1734 11.8304 48.0511C10.7651 46.9966 9.94236 45.7224 9.41961 44.3174C8.78911 42.6126 8.45111 40.8136 8.42011 38.9961V21.0031C8.45111 19.1859 8.78911 17.3866 9.41961 15.6819C9.96136 14.2239 10.8259 12.9074 11.9481 11.8304C13.0074 10.7709 14.2801 9.94911 15.6819 9.41961C17.3884 8.79161 19.1856 8.44411 21.0031 8.39061H38.9961C40.8139 8.44411 42.6109 8.79161 44.3174 9.41961C45.7754 9.96136 47.0919 10.8259 48.1689 11.9481C49.2339 13.0029 50.0569 14.2769 50.5796 15.6819C51.2076 17.3884 51.5551 19.1856 51.6086 21.0031V29.9996C51.6086 36.0561 51.8144 36.6734 51.7261 38.9961V39.0254ZM47.0221 17.1519C46.6721 16.2021 46.1201 15.3396 45.4046 14.6241C44.6891 13.9084 43.8264 13.3564 42.8769 13.0064C41.5729 12.5544 40.1994 12.3356 38.8196 12.3596H21.1796C19.7929 12.3731 18.4191 12.6319 17.1224 13.1241C16.1874 13.4581 15.3341 13.9876 14.6194 14.6769C13.9046 15.3664 13.3446 16.1999 12.9771 17.1224C12.5501 18.4319 12.3414 19.8026 12.3596 21.1796V38.8196C12.3889 40.2049 12.6471 41.5759 13.1241 42.8769C13.4741 43.8264 14.0259 44.6891 14.7416 45.4046C15.4574 46.1201 16.3199 46.6721 17.2694 47.0221C18.5239 47.4836 19.8439 47.7416 21.1796 47.7866H38.8196C40.2064 47.7731 41.5801 47.5144 42.8769 47.0221C43.8264 46.6721 44.6891 46.1201 45.4046 45.4046C46.1201 44.6891 46.6721 43.8264 47.0221 42.8769C47.5144 41.5801 47.7731 40.2064 47.7866 38.8196V21.1796C47.7876 19.7914 47.5281 18.4151 47.0221 17.1224V17.1519ZM29.9996 41.2304C28.5261 41.2304 27.0674 40.9396 25.7064 40.3749C24.3454 39.8101 23.1091 38.9826 22.0686 37.9391C21.0281 36.8959 20.2036 35.6576 19.6424 34.2954C19.0814 32.9329 18.7944 31.4731 18.7981 29.9996C18.7981 27.7774 19.4576 25.6046 20.6931 23.7571C21.9284 21.9096 23.6841 20.4701 25.7381 19.6209C27.7919 18.7719 30.0516 18.5511 32.2309 18.9869C34.4101 19.4226 36.4111 20.4951 37.9809 22.0686C39.5501 23.6424 40.6176 25.6461 41.0476 27.8266C41.4776 30.0074 41.2511 32.2664 40.3964 34.3179C39.5421 36.3694 38.0979 38.1214 36.2471 39.3521C34.3964 40.5824 32.2221 41.2364 29.9996 41.2304ZM41.7596 20.9739C41.1096 20.9051 40.5084 20.5981 40.0711 20.1124C39.6341 19.6266 39.3921 18.9961 39.3921 18.3426C39.3921 17.6891 39.6339 17.0586 40.0711 16.5726C40.5084 16.0866 41.1096 15.7801 41.7596 15.7111C42.4096 15.7801 43.0109 16.0869 43.4481 16.5726C43.8854 17.0586 44.1271 17.6889 44.1271 18.3426C44.1271 18.9964 43.8854 19.6264 43.4481 20.1124C43.0109 20.5984 42.4096 20.9051 41.7596 20.9739Z" fill="white"/>
</g>
</g>
<defs>
<clipPath id="clip0_552_2317">
<rect width="60" height="60" fill="white"/>
</clipPath>
<clipPath id="clip1_552_2317">
<rect width="60" height="60" fill="white"/>
</clipPath>
</defs>
</svg>
