<svg width="60" height="60" viewBox="0 0 60 60" fill="none" xmlns="http://www.w3.org/2000/svg">
<g clip-path="url(#clip0_552_2320)">
<path fill-rule="evenodd" clip-rule="evenodd" d="M30 57.5C45.1875 57.5 57.5 45.1875 57.5 30C57.5 14.8125 45.1875 2.5 30 2.5C14.8125 2.5 2.5 14.8125 2.5 30C2.5 45.1875 14.8125 57.5 30 57.5ZM14.9825 22.8975C17.9575 22.105 23.1725 21.275 28.9075 21.4525C34.6575 21.63 40.6825 22.815 45.475 25.8225C46.0369 26.1749 46.7158 26.2897 47.3624 26.1415C48.0089 25.9933 48.5701 25.5944 48.9225 25.0325C49.2749 24.4706 49.3897 23.7917 49.2415 23.1451C49.0933 22.4986 48.6944 21.9374 48.1325 21.585C42.3 17.9275 35.2875 16.6475 29.0625 16.455C22.8175 16.2625 17.1175 17.155 13.6975 18.065C13.3802 18.1494 13.0826 18.2954 12.8217 18.4948C12.5609 18.6942 12.3418 18.943 12.1771 19.227C12.0124 19.5111 11.9053 19.8247 11.8618 20.1502C11.8183 20.4756 11.8394 20.8064 11.9237 21.1238C12.0081 21.4411 12.1542 21.7386 12.3536 21.9995C12.5529 22.2604 12.8017 22.4794 13.0858 22.6441C13.3698 22.8088 13.6835 22.916 14.0089 22.9594C14.3344 23.0029 14.6652 22.9819 14.9825 22.8975ZM27.5725 31.4225C22.855 31.2575 18.6975 31.9975 16.4 32.6925C15.7671 32.8794 15.0859 32.8084 14.5051 32.4951C13.9243 32.1817 13.4909 31.6514 13.2995 31.0198C13.1081 30.3883 13.1742 29.7066 13.4834 29.1236C13.7926 28.5405 14.3198 28.1034 14.95 27.9075C17.7675 27.055 22.475 26.24 27.75 26.4275C33.03 26.615 39.0675 27.8125 44.37 31.175C44.6474 31.3506 44.8875 31.5792 45.0766 31.8476C45.2657 32.1161 45.4001 32.4191 45.472 32.7395C45.544 33.0599 45.5521 33.3913 45.496 33.7148C45.4399 34.0383 45.3206 34.3476 45.145 34.625C44.9694 34.9024 44.7408 35.1425 44.4724 35.3316C44.2039 35.5207 43.9009 35.6551 43.5805 35.727C43.2601 35.799 42.9287 35.8071 42.6052 35.751C42.2817 35.6949 41.9724 35.5756 41.695 35.4C37.375 32.66 32.29 31.59 27.5725 31.4225ZM17.1475 41.6775C19.4475 41.1025 23.4175 40.525 27.615 40.7275C31.85 40.9325 35.98 41.9175 38.925 44.1525C39.4531 44.5536 40.1189 44.7286 40.776 44.6388C41.4331 44.549 42.0276 44.2019 42.4288 43.6737C42.8299 43.1456 43.0048 42.4798 42.915 41.8227C42.8252 41.1656 42.4781 40.5711 41.95 40.17C37.85 37.06 32.55 35.96 27.855 35.7325C23.1225 35.505 18.6625 36.145 15.935 36.8275C15.6117 36.9025 15.3065 37.0411 15.0373 37.2352C14.7681 37.4294 14.5403 37.6752 14.3671 37.9583C14.1939 38.2415 14.0788 38.5563 14.0285 38.8843C13.9782 39.2124 13.9938 39.5472 14.0743 39.8692C14.1548 40.1912 14.2986 40.494 14.4974 40.7598C14.6961 41.0256 14.9458 41.2492 15.2319 41.4176C15.5179 41.5859 15.8346 41.6956 16.1635 41.7402C16.4924 41.7848 16.8269 41.7635 17.1475 41.6775Z" fill="white"/>
</g>
<defs>
<clipPath id="clip0_552_2320">
<rect width="60" height="60" fill="white"/>
</clipPath>
</defs>
</svg>
